<svg xmlns="http://www.w3.org/2000/svg" width="168" height="26" viewBox="0 0 168 26" fill="none"><rect x="1.14713" y="1.24886" width="35.5" height="24.5" rx="3.75" transform="rotate(-0.2615 1.14713 1.24886)" fill="white" stroke="#A7ACBE" stroke-width="0.5"></rect><path d="M6.91153 4.36683L6.99459 22.5655C6.99856 23.4366 7.70746 24.1462 8.56991 24.1422L19.3349 24.0931C27.4733 24.0559 30.9806 19.4387 30.9527 13.3329C30.925 7.25873 27.3758 2.68953 19.2374 2.72667L8.4724 2.7758C7.60994 2.77974 6.90755 3.4957 6.91153 4.36683Z" fill="white"></path><path d="M14.1296 7.2168L14.191 20.6639L19.9851 20.6374C25.2461 20.6134 27.514 17.6016 27.4946 13.3568C27.4761 9.29415 25.1801 6.15267 19.9191 6.17668L15.1286 6.19854C14.5719 6.20109 14.1271 6.66243 14.1296 7.2168Z" fill="#CC0066"></path><path d="M19.3272 22.6438L9.9656 22.6866C9.13451 22.6904 8.45712 22.0123 8.45329 21.1729L8.38292 5.75392C8.37908 4.91446 9.05026 4.23032 9.88135 4.22653L19.2429 4.1838C28.1262 4.14326 29.4776 9.91042 29.4933 13.3474C29.5205 19.3107 25.9053 22.6138 19.3272 22.6438ZM9.88367 4.73336C9.32699 4.73591 8.88214 5.18935 8.88471 5.75163L8.95508 21.1706C8.95765 21.7329 9.40662 22.1822 9.96329 22.1797L19.3248 22.137C25.5815 22.1084 29.0172 18.9883 28.9915 13.3497C28.9569 5.77881 22.8675 4.67411 19.2452 4.69064L9.88367 4.73336Z" fill="black"></path><path d="M16.188 11.5942C16.3918 11.5933 16.5801 11.6241 16.7608 11.6867C16.9414 11.7492 17.0908 11.8515 17.2247 11.9776C17.3508 12.1116 17.4534 12.2775 17.5327 12.4672C17.6042 12.6648 17.6444 12.8943 17.6457 13.1636C17.6467 13.4012 17.6164 13.6151 17.5624 13.8134C17.5006 14.0116 17.4151 14.1863 17.2981 14.3293C17.1812 14.4724 17.0327 14.584 16.8528 14.6719C16.6728 14.7519 16.4613 14.8004 16.2183 14.8015L14.8462 14.8078L14.8315 11.5925L16.1879 11.5863L16.188 11.5942ZM16.1529 14.2158C16.2548 14.2153 16.3488 14.199 16.4506 14.1669C16.5446 14.1348 16.6305 14.079 16.7007 13.9994C16.7709 13.9199 16.8332 13.8246 16.8797 13.6977C16.9262 13.5708 16.9491 13.4281 16.9482 13.246C16.9475 13.0876 16.9311 12.9372 16.8992 12.8106C16.8672 12.6841 16.8118 12.5655 16.7408 12.4787C16.6699 12.3919 16.5754 12.3132 16.4576 12.2662C16.3398 12.2192 16.1986 12.1961 16.0261 12.1969L15.5243 12.1992L15.5335 14.2265L16.1529 14.2237L16.1529 14.2158Z" fill="white"></path><path d="M20.4685 11.5747L20.4712 12.1686L18.7933 12.1763L18.7965 12.8653L20.3411 12.8582L20.3435 13.4047L18.799 13.4117L18.8025 14.1957L20.5196 14.1879L20.5223 14.7819L18.1074 14.7929L18.0928 11.5776L20.4684 11.5668L20.4685 11.5747Z" fill="white"></path><path d="M22.8692 11.5637L24.0756 14.7735L23.3465 14.7768L23.1002 14.0652L21.9084 14.0706L21.6608 14.7845L20.9551 14.7878L22.14 11.567L22.8692 11.5637ZM22.9174 13.5355L22.5122 12.3573L22.5043 12.3573L22.0942 13.5392L22.9174 13.5355Z" fill="white"></path><path d="M25.1968 11.553L25.2088 14.1743L26.7612 14.1672L26.7639 14.7611L24.5137 14.7714L24.499 11.5562L25.1968 11.553Z" fill="white"></path><path d="M11.5461 14.7042C12.3559 14.7005 13.0092 14.0345 13.0055 13.2166C13.0018 12.3987 12.3423 11.7386 11.5326 11.7423C10.7228 11.746 10.0694 12.412 10.0732 13.2299C10.0769 14.0478 10.7363 14.7079 11.5461 14.7042Z" fill="black"></path><path d="M12.6778 20.6698C11.4468 20.6754 10.4543 19.6741 10.4487 18.4387L10.4407 16.6885C10.4379 16.0708 10.9295 15.5617 11.5489 15.5589C12.1605 15.5561 12.6645 16.0527 12.6674 16.6783L12.6856 20.6697L12.6778 20.6698Z" fill="black"></path><rect x="45.1466" y="1.04793" width="35.5" height="24.5" rx="3.75" transform="rotate(-0.2615 45.1466 1.04793)" fill="white" stroke="#A7ACBE" stroke-width="0.5"></rect><path d="M66.2738 18.812L59.8491 18.8413L59.7964 7.30127L66.2211 7.27195L66.2738 18.812Z" fill="#6C6BBD"></path><path d="M60.2347 13.0676C60.224 10.7266 61.3111 8.63639 63.0128 7.28477C61.7594 6.30781 60.1806 5.72848 58.4677 5.7363C54.4126 5.7548 51.1404 9.05563 51.1589 13.109C51.1774 17.1624 54.4796 20.4332 58.5347 20.4147C60.2476 20.4069 61.8211 19.8132 63.0654 18.8248C61.3515 17.4888 60.2454 15.4086 60.2347 13.0676Z" fill="#EB001B"></path><path d="M74.9126 13.0006C74.9311 17.054 71.6589 20.3548 67.6038 20.3733C65.8909 20.3811 64.3121 19.8018 63.0583 18.8249C64.7604 17.4732 65.8475 15.383 65.8368 13.042C65.8262 10.7011 64.72 8.62082 63.0056 7.2848C64.2504 6.29643 65.8239 5.70271 67.5368 5.69489C71.592 5.67639 74.8941 8.94721 74.9126 13.0006Z" fill="#0099DF"></path><rect x="89.1462" y="0.847245" width="34.5" height="24.5" rx="3.75" transform="rotate(-0.2615 89.1462 0.847245)" fill="white" stroke="#A7ACBE" stroke-width="0.5"></rect><path d="M109.682 18.6141L103.435 18.6426L103.383 7.10254L109.629 7.07403L109.682 18.6141Z" fill="#FF5F00"></path><path d="M103.809 12.8688C103.799 10.5278 104.855 8.43773 106.509 7.08633C105.291 6.1092 103.756 5.52968 102.09 5.53728C98.1479 5.55527 94.967 8.85568 94.9855 12.9091C95.004 16.9625 98.2149 20.2337 102.157 20.2157C103.823 20.2081 105.352 19.6146 106.562 18.6264C104.896 17.2901 103.82 15.2098 103.809 12.8688Z" fill="#EB001B"></path><path d="M118.08 12.8039C118.099 16.8573 114.918 20.1577 110.975 20.1757C109.31 20.1833 107.775 19.6037 106.556 18.6266C108.21 17.2752 109.267 15.1851 109.256 12.8441C109.246 10.5032 108.17 8.4228 106.503 7.08656C107.713 6.09834 109.243 5.50483 110.908 5.49723C114.851 5.47923 118.062 8.75047 118.08 12.8039Z" fill="#F79E1B"></path><rect x="132.146" y="0.650956" width="35.5" height="24.5" rx="3.75" transform="rotate(-0.2615 132.146 0.650956)" fill="white" stroke="#A7ACBE" stroke-width="0.5"></rect><path d="M147.955 17.474L145.558 17.485L147.018 8.72778L149.414 8.71684L147.955 17.474Z" fill="#15195A"></path><path d="M156.606 8.89832C156.132 8.72342 155.382 8.53136 154.454 8.53559C152.088 8.54639 150.426 9.74548 150.424 11.449C150.41 12.7059 151.626 13.3984 152.535 13.8133C153.464 14.2373 153.781 14.5153 153.783 14.897C153.776 15.4833 153.037 15.7569 152.347 15.76C151.39 15.7644 150.877 15.6274 150.096 15.3048L149.78 15.1665L149.454 17.1323C150.017 17.3715 151.054 17.5813 152.129 17.5858C154.644 17.5743 156.276 16.3938 156.287 14.5784C156.292 13.5822 155.648 12.8219 154.264 12.2045C153.424 11.8079 152.909 11.5403 152.907 11.1307C152.916 10.7582 153.338 10.3748 154.284 10.3705C155.064 10.3483 155.637 10.5225 156.071 10.6974L156.289 10.7893L156.606 8.89832Z" fill="#15195A"></path><path fill-rule="evenodd" clip-rule="evenodd" d="M160.894 8.66431L162.748 8.65585L164.721 17.3973L162.502 17.4074C162.502 17.4074 162.28 16.403 162.21 16.0961L159.133 16.1101C159.045 16.3431 158.636 17.425 158.636 17.425L156.121 17.4365L159.644 9.39605C159.889 8.82703 160.322 8.66692 160.894 8.66431ZM160.76 11.8679C160.76 11.8679 160.009 13.817 159.814 14.3206L161.806 14.3115C161.705 13.8745 161.242 11.782 161.242 11.782L161.071 11.0288C161.001 11.2232 160.901 11.4906 160.833 11.671C160.787 11.7932 160.756 11.8755 160.76 11.8679Z" fill="#15195A"></path><path fill-rule="evenodd" clip-rule="evenodd" d="M135.136 8.7818L138.992 8.7642C139.515 8.78025 139.94 8.93656 140.08 9.4948L140.935 13.5036C140.936 13.5064 140.937 13.5093 140.938 13.5122L141.2 14.7212L143.52 8.74354L146.054 8.73197L142.327 17.4902L139.792 17.5018L137.622 9.9088C136.882 9.50514 136.039 9.18163 135.097 8.95879L135.136 8.7818Z" fill="#15195A"></path></svg>
